<svg width="1691" height="1691" viewBox="0 0 1691 1691" fill="none" xmlns="http://www.w3.org/2000/svg">
<path d="M1691 0H0V1691H1691V0Z" fill="#1BD741"/>
<path d="M254.148 1437.49L336.978 1143.31C283.714 1052.82 255.67 949.864 255.67 844.099C255.67 518.445 520.608 253.507 846.262 253.507C1171.92 253.507 1436.85 518.445 1436.85 844.099C1436.85 1169.75 1171.92 1434.69 846.262 1434.69C744.791 1434.69 645.43 1408.72 557.532 1359.4L254.148 1437.49ZM573.042 1251.95L591.12 1262.99C667.757 1309.78 755.985 1334.51 846.262 1334.51C1116.67 1334.51 1336.67 1114.51 1336.67 844.099C1336.67 573.688 1116.67 353.691 846.262 353.691C575.851 353.691 355.854 573.688 355.854 844.099C355.854 938.321 382.633 1029.82 433.289 1108.7L445.463 1127.66L397.764 1297.07L573.042 1251.95Z" fill="white"/>
<path d="M680.358 569.22L642.035 567.131C629.998 566.474 618.192 570.496 609.093 578.4C590.515 594.533 560.808 625.724 551.684 666.369C538.078 726.973 559.105 801.183 613.527 875.394C667.95 949.604 769.369 1068.34 948.71 1119.05C1006.5 1135.39 1051.96 1124.38 1087.04 1101.94C1114.82 1084.17 1133.97 1055.65 1140.87 1023.4L1146.99 994.824C1148.93 985.741 1144.32 976.524 1135.88 972.635L1006.37 912.937C997.96 909.063 987.99 911.512 982.335 918.84L931.489 984.754C927.649 989.733 921.074 991.707 915.137 989.622C880.318 977.385 763.681 928.536 699.682 805.257C696.907 799.911 697.597 793.421 701.534 788.861L750.127 732.646C755.091 726.906 756.345 718.836 753.362 711.86L697.534 581.246C694.561 574.292 687.901 569.632 680.358 569.22Z" fill="white"/>
</svg>
